<svg width="112" height="17" viewBox="0 0 112 17" fill="none" xmlns="http://www.w3.org/2000/svg">
<path d="M13.13 1.43V16H9.73V9.84H3.81V16H0.41V1.43H3.81V7.52H9.73V1.43H13.13ZM20.0644 5.47C20.851 5.47 21.5677 5.59333 22.2144 5.84C22.861 6.08667 23.4144 6.44 23.8744 6.9C24.341 7.36 24.701 7.92 24.9544 8.58C25.2144 9.23333 25.3444 9.97 25.3444 10.79C25.3444 11.6167 25.2144 12.3633 24.9544 13.03C24.701 13.69 24.341 14.2533 23.8744 14.72C23.4144 15.18 22.861 15.5367 22.2144 15.79C21.5677 16.0367 20.851 16.16 20.0644 16.16C19.271 16.16 18.5477 16.0367 17.8944 15.79C17.2477 15.5367 16.6877 15.18 16.2144 14.72C15.7477 14.2533 15.3844 13.69 15.1244 13.03C14.871 12.3633 14.7444 11.6167 14.7444 10.79C14.7444 9.97 14.871 9.23333 15.1244 8.58C15.3844 7.92 15.7477 7.36 16.2144 6.9C16.6877 6.44 17.2477 6.08667 17.8944 5.84C18.5477 5.59333 19.271 5.47 20.0644 5.47ZM20.0644 13.86C20.7777 13.86 21.301 13.61 21.6344 13.11C21.9744 12.6033 22.1444 11.8367 22.1444 10.81C22.1444 9.78333 21.9744 9.02 21.6344 8.52C21.301 8.02 20.7777 7.77 20.0644 7.77C19.331 7.77 18.7944 8.02 18.4544 8.52C18.1144 9.02 17.9444 9.78333 17.9444 10.81C17.9444 11.8367 18.1144 12.6033 18.4544 13.11C18.7944 13.61 19.331 13.86 20.0644 13.86ZM26.9055 16V5.63H28.8255C29.2121 5.63 29.4655 5.80333 29.5855 6.15L29.7555 6.71C29.9288 6.53 30.1088 6.36667 30.2955 6.22C30.4821 6.06667 30.6821 5.93667 30.8955 5.83C31.1155 5.71667 31.3488 5.63 31.5955 5.57C31.8488 5.50333 32.1255 5.47 32.4255 5.47C33.0521 5.47 33.5688 5.63333 33.9755 5.96C34.3888 6.28 34.7021 6.71 34.9155 7.25C35.0888 6.93 35.2988 6.65667 35.5455 6.43C35.7988 6.20333 36.0688 6.02 36.3555 5.88C36.6488 5.74 36.9555 5.63667 37.2755 5.57C37.6021 5.50333 37.9255 5.47 38.2455 5.47C38.8388 5.47 39.3655 5.56 39.8255 5.74C40.2855 5.91333 40.6688 6.17 40.9755 6.51C41.2888 6.84333 41.5255 7.25667 41.6855 7.75C41.8455 8.23667 41.9255 8.79 41.9255 9.41V16H38.8255V9.41C38.8255 8.33667 38.3655 7.8 37.4455 7.8C37.0255 7.8 36.6755 7.94 36.3955 8.22C36.1221 8.49333 35.9855 8.89 35.9855 9.41V16H32.8855V9.41C32.8855 8.81667 32.7688 8.4 32.5355 8.16C32.3021 7.92 31.9588 7.8 31.5055 7.8C31.2255 7.8 30.9588 7.86333 30.7055 7.99C30.4588 8.11667 30.2255 8.28667 30.0055 8.5V16H26.9055ZM50.3672 9.57C50.3672 9.32333 50.3339 9.08333 50.2672 8.85C50.2072 8.61667 50.1039 8.41 49.9572 8.23C49.8172 8.04333 49.6305 7.89333 49.3972 7.78C49.1639 7.66667 48.8805 7.61 48.5472 7.61C47.9605 7.61 47.5005 7.78 47.1672 8.12C46.8339 8.45333 46.6139 8.93667 46.5072 9.57H50.3672ZM46.4672 11.37C46.5672 12.2367 46.8305 12.8667 47.2572 13.26C47.6839 13.6467 48.2339 13.84 48.9072 13.84C49.2672 13.84 49.5772 13.7967 49.8372 13.71C50.0972 13.6233 50.3272 13.5267 50.5272 13.42C50.7339 13.3133 50.9205 13.2167 51.0872 13.13C51.2605 13.0433 51.4405 13 51.6272 13C51.8739 13 52.0605 13.09 52.1872 13.27L53.0872 14.38C52.7672 14.7467 52.4205 15.0467 52.0472 15.28C51.6805 15.5067 51.3005 15.6867 50.9072 15.82C50.5205 15.9467 50.1305 16.0333 49.7372 16.08C49.3505 16.1333 48.9805 16.16 48.6272 16.16C47.9005 16.16 47.2172 16.0433 46.5772 15.81C45.9439 15.57 45.3872 15.2167 44.9072 14.75C44.4339 14.2833 44.0572 13.7033 43.7772 13.01C43.5039 12.3167 43.3672 11.51 43.3672 10.59C43.3672 9.89667 43.4839 9.24 43.7172 8.62C43.9572 8 44.2972 7.45667 44.7372 6.99C45.1839 6.52333 45.7205 6.15333 46.3472 5.88C46.9805 5.60667 47.6939 5.47 48.4872 5.47C49.1739 5.47 49.8005 5.57667 50.3672 5.79C50.9405 6.00333 51.4305 6.31333 51.8372 6.72C52.2505 7.12667 52.5705 7.62667 52.7972 8.22C53.0305 8.80667 53.1472 9.47333 53.1472 10.22C53.1472 10.4533 53.1372 10.6433 53.1172 10.79C53.0972 10.9367 53.0605 11.0533 53.0072 11.14C52.9539 11.2267 52.8805 11.2867 52.7872 11.32C52.7005 11.3533 52.5872 11.37 52.4472 11.37H46.4672ZM58.2436 4.03V7.72H63.2236V10.33H58.2436V16H54.8436V1.43H64.2236V4.03H58.2436ZM68.9817 5.63V16H65.8817V5.63H68.9817ZM69.3017 2.79C69.3017 3.03667 69.2517 3.27 69.1517 3.49C69.0517 3.70333 68.9151 3.89333 68.7417 4.06C68.5684 4.22 68.3651 4.35 68.1317 4.45C67.9051 4.54333 67.6617 4.59 67.4017 4.59C67.1484 4.59 66.9117 4.54333 66.6917 4.45C66.4717 4.35 66.2751 4.22 66.1017 4.06C65.9351 3.89333 65.8017 3.70333 65.7017 3.49C65.6084 3.27 65.5617 3.03667 65.5617 2.79C65.5617 2.53667 65.6084 2.3 65.7017 2.08C65.8017 1.86 65.9351 1.66667 66.1017 1.5C66.2751 1.33333 66.4717 1.20333 66.6917 1.11C66.9117 1.01667 67.1484 0.97 67.4017 0.97C67.6617 0.97 67.9051 1.01667 68.1317 1.11C68.3651 1.20333 68.5684 1.33333 68.7417 1.5C68.9151 1.66667 69.0517 1.86 69.1517 2.08C69.2517 2.3 69.3017 2.53667 69.3017 2.79ZM74.0038 6.75C74.2038 6.56333 74.4104 6.39 74.6238 6.23C74.8371 6.07 75.0638 5.93667 75.3038 5.83C75.5504 5.71667 75.8138 5.63 76.0938 5.57C76.3804 5.50333 76.6904 5.47 77.0238 5.47C77.5904 5.47 78.0904 5.57 78.5238 5.77C78.9638 5.96333 79.3338 6.23667 79.6338 6.59C79.9338 6.93667 80.1604 7.35333 80.3138 7.84C80.4671 8.32 80.5438 8.84333 80.5438 9.41V16H77.4438V9.41C77.4438 8.90333 77.3271 8.51 77.0938 8.23C76.8604 7.94333 76.5171 7.8 76.0638 7.8C75.7238 7.8 75.4038 7.87333 75.1038 8.02C74.8104 8.16 74.5238 8.35333 74.2438 8.6V16H71.1438V5.63H73.0638C73.4504 5.63 73.7038 5.80333 73.8238 6.15L74.0038 6.75ZM88.84 8.41C88.6067 8.15 88.3533 7.97 88.08 7.87C87.8067 7.76333 87.52 7.71 87.22 7.71C86.9333 7.71 86.67 7.76667 86.43 7.88C86.19 7.99333 85.98 8.17667 85.8 8.43C85.6267 8.67667 85.49 9 85.39 9.4C85.29 9.8 85.24 10.2833 85.24 10.85C85.24 11.3967 85.28 11.8567 85.36 12.23C85.44 12.6033 85.55 12.9067 85.69 13.14C85.8367 13.3667 86.01 13.53 86.21 13.63C86.41 13.73 86.6333 13.78 86.88 13.78C87.1067 13.78 87.31 13.76 87.49 13.72C87.6767 13.6733 87.8467 13.61 88 13.53C88.1533 13.45 88.2967 13.35 88.43 13.23C88.57 13.1033 88.7067 12.96 88.84 12.8V8.41ZM91.94 1.03V16H90.02C89.6333 16 89.38 15.8267 89.26 15.48L89.02 14.69C88.8133 14.91 88.5967 15.11 88.37 15.29C88.1433 15.47 87.8967 15.6267 87.63 15.76C87.37 15.8867 87.0867 15.9833 86.78 16.05C86.48 16.1233 86.1533 16.16 85.8 16.16C85.26 16.16 84.76 16.04 84.3 15.8C83.84 15.56 83.4433 15.2133 83.11 14.76C82.7767 14.3067 82.5133 13.7533 82.32 13.1C82.1333 12.44 82.04 11.69 82.04 10.85C82.04 10.0767 82.1467 9.36 82.36 8.7C82.5733 8.03333 82.8733 7.46 83.26 6.98C83.6533 6.49333 84.1233 6.11333 84.67 5.84C85.2167 5.56667 85.82 5.43 86.48 5.43C87.02 5.43 87.4733 5.50667 87.84 5.66C88.2067 5.81333 88.54 6.02 88.84 6.28V1.03H91.94ZM100.484 9.57C100.484 9.32333 100.451 9.08333 100.384 8.85C100.324 8.61667 100.221 8.41 100.074 8.23C99.9344 8.04333 99.7477 7.89333 99.5144 7.78C99.281 7.66667 98.9977 7.61 98.6644 7.61C98.0777 7.61 97.6177 7.78 97.2844 8.12C96.951 8.45333 96.731 8.93667 96.6244 9.57H100.484ZM96.5844 11.37C96.6844 12.2367 96.9477 12.8667 97.3744 13.26C97.801 13.6467 98.351 13.84 99.0244 13.84C99.3844 13.84 99.6944 13.7967 99.9544 13.71C100.214 13.6233 100.444 13.5267 100.644 13.42C100.851 13.3133 101.038 13.2167 101.204 13.13C101.378 13.0433 101.558 13 101.744 13C101.991 13 102.178 13.09 102.304 13.27L103.204 14.38C102.884 14.7467 102.538 15.0467 102.164 15.28C101.798 15.5067 101.418 15.6867 101.024 15.82C100.638 15.9467 100.248 16.0333 99.8544 16.08C99.4677 16.1333 99.0977 16.16 98.7444 16.16C98.0177 16.16 97.3344 16.0433 96.6944 15.81C96.061 15.57 95.5044 15.2167 95.0244 14.75C94.551 14.2833 94.1744 13.7033 93.8944 13.01C93.621 12.3167 93.4844 11.51 93.4844 10.59C93.4844 9.89667 93.601 9.24 93.8344 8.62C94.0744 8 94.4144 7.45667 94.8544 6.99C95.301 6.52333 95.8377 6.15333 96.4644 5.88C97.0977 5.60667 97.811 5.47 98.6044 5.47C99.291 5.47 99.9177 5.57667 100.484 5.79C101.058 6.00333 101.548 6.31333 101.954 6.72C102.368 7.12667 102.688 7.62667 102.914 8.22C103.148 8.80667 103.264 9.47333 103.264 10.22C103.264 10.4533 103.254 10.6433 103.234 10.79C103.214 10.9367 103.178 11.0533 103.124 11.14C103.071 11.2267 102.998 11.2867 102.904 11.32C102.818 11.3533 102.704 11.37 102.564 11.37H96.5844ZM107.716 7.23C108.036 6.67 108.402 6.23 108.816 5.91C109.236 5.59 109.716 5.43 110.256 5.43C110.722 5.43 111.102 5.54 111.396 5.76L111.196 8.04C111.162 8.18667 111.106 8.28667 111.026 8.34C110.952 8.39333 110.849 8.42 110.716 8.42C110.662 8.42 110.592 8.41667 110.506 8.41C110.419 8.40333 110.329 8.39667 110.236 8.39C110.142 8.37667 110.046 8.36667 109.946 8.36C109.852 8.34667 109.766 8.34 109.686 8.34C109.232 8.34 108.869 8.46 108.596 8.7C108.329 8.94 108.102 9.27333 107.916 9.7V16H104.816V5.63H106.656C106.809 5.63 106.936 5.64333 107.036 5.67C107.142 5.69667 107.229 5.74 107.296 5.8C107.369 5.85333 107.422 5.92667 107.456 6.02C107.496 6.11333 107.529 6.22667 107.556 6.36L107.716 7.23Z" fill="#2C3043"/>
</svg>
