<svg width="21" height="25" viewBox="0 0 21 25" fill="none" xmlns="http://www.w3.org/2000/svg">
<path d="M0 12.0075C0 8.52137 0 5.03436 0 1.5482C0 0.534416 0.547329 0.00455963 1.59623 0.00200816C2.41722 0.000307176 3.23822 0.000307176 4.05921 0.00200816C5.12923 0.00455963 5.67128 0.533565 5.67128 1.58137C5.67216 4.17452 5.67128 6.76851 5.67128 9.36166C5.67128 9.65848 5.62552 9.97146 5.95902 10.1518C6.29076 10.3312 6.54243 10.1407 6.80289 9.97571C7.72156 9.39228 8.64727 8.81905 9.56241 8.23051C10.1854 7.82993 10.7741 7.84609 11.4006 8.24497C14.2649 10.0684 17.1309 11.8902 20.0162 13.6822C20.7061 14.1108 21.0132 14.6236 21 15.4282C20.9604 17.7798 20.9868 20.1331 20.985 22.4856C20.985 23.4475 20.428 23.9927 19.4425 23.9978C18.5775 24.002 17.7125 24.0029 16.8475 23.9978C15.8901 23.9918 15.3208 23.4415 15.3182 22.5103C15.3129 20.7812 15.3094 19.0522 15.319 17.3231C15.3226 16.732 15.092 16.2898 14.5772 15.9683C13.5055 15.3006 12.4363 14.6287 11.3751 13.9458C10.7671 13.5546 10.1828 13.5529 9.57473 13.9433C8.52495 14.6177 7.46813 15.2811 6.40867 15.9419C5.8939 16.2625 5.66424 16.7056 5.66776 17.2976C5.6792 19.0122 5.67304 20.7268 5.6704 22.4422C5.66952 23.4594 5.11867 23.9961 4.07857 23.9986C3.22854 24.0003 2.37762 24.0029 1.52759 23.9986C0.564928 23.9935 0.0052797 23.4483 0.00439975 22.5111C0.0017599 19.0105 0.0035198 15.5099 0.0035198 12.0101H0V12.0075Z" fill="#E95D3F"/>
<path d="M20.9868 7.39587C20.9868 8.35777 21.0018 9.32053 20.9736 10.2816C20.9683 10.4738 20.8469 10.7391 20.692 10.8285C20.5591 10.905 20.26 10.837 20.1033 10.7332C18.2422 9.50509 16.3926 8.26082 14.5447 7.01485C14.0704 6.69507 14.1144 6.28088 14.6512 6.0589C16.4533 5.31387 18.2581 4.57479 20.0664 3.84337C20.6084 3.62394 20.9815 3.88164 20.985 4.46593C20.9912 5.44229 20.9868 6.41866 20.9868 7.39502V7.39587Z" fill="#E95D3F"/>
</svg>
