<svg width="699" height="138" viewBox="0 0 699 138" fill="none" xmlns="http://www.w3.org/2000/svg">
<path d="M0 69.0361C0 48.9915 0 28.9421 0 8.89755C0 3.06854 3.147 0.0220055 9.17791 0.00733516C13.8984 -0.00244505 18.6189 -0.00244505 23.3394 0.00733516C29.4918 0.0220055 32.6084 3.06365 32.6084 9.08827C32.6135 23.9982 32.6084 38.913 32.6084 53.823C32.6084 55.5296 32.3453 57.3292 34.2629 58.3659C36.1703 59.3977 37.6173 58.3023 39.1149 57.3536C44.397 53.999 49.7196 50.7031 54.9815 47.3191C58.5636 45.0159 61.9484 45.1088 65.5507 47.4023C82.0194 57.8867 98.4981 68.3613 115.088 78.6647C119.055 81.1293 120.821 84.0781 120.745 88.7041C120.517 102.225 120.669 115.756 120.659 129.282C120.659 134.813 117.456 137.948 111.789 137.977C106.816 138.001 101.842 138.006 96.869 137.977C91.3643 137.943 88.0908 134.779 88.0756 129.424C88.0452 119.482 88.025 109.541 88.0807 99.5993C88.1009 96.2007 86.7753 93.6578 83.8155 91.8093C77.653 87.9706 71.5058 84.1074 65.404 80.1807C61.9079 77.9312 58.5484 77.9214 55.0523 80.166C49.0163 84.0438 42.9399 87.8581 36.8483 91.6577C33.8885 93.5013 32.5679 96.0491 32.5882 99.4526C32.6539 109.311 32.6185 119.169 32.6034 129.033C32.5983 134.881 29.4311 137.967 23.4507 137.982C18.5633 137.992 13.6707 138.006 8.78327 137.982C3.24819 137.952 0.0303569 134.818 0.0252974 129.429C0.010119 109.301 0.020238 89.1736 0.020238 69.0508H0V69.0361Z" fill="#ED6565"/>
<path d="M120.669 42.5202C120.669 48.0509 120.755 53.5865 120.593 59.1124C120.562 60.2175 119.864 61.7432 118.974 62.2567C118.21 62.6968 116.49 62.3056 115.589 61.709C104.888 54.6477 94.2531 47.4935 83.6282 40.3295C80.9011 38.4908 81.1541 36.1093 84.2404 34.833C94.6022 30.5493 104.979 26.2998 115.376 22.0943C118.493 20.8326 120.638 22.3143 120.659 25.6738C120.694 31.2877 120.669 36.9015 120.669 42.5153V42.5202Z" fill="#ED6565"/>
<path d="M218.824 47.064V117H202.504V87.432H174.088V117H157.768V47.064H174.088V76.296H202.504V47.064H218.824ZM252.109 66.456C255.885 66.456 259.325 67.048 262.429 68.232C265.533 69.416 268.189 71.112 270.397 73.32C272.637 75.528 274.365 78.216 275.581 81.384C276.829 84.52 277.453 88.056 277.453 91.992C277.453 95.96 276.829 99.544 275.581 102.744C274.365 105.912 272.637 108.616 270.397 110.856C268.189 113.064 265.533 114.776 262.429 115.992C259.325 117.176 255.885 117.768 252.109 117.768C248.301 117.768 244.829 117.176 241.693 115.992C238.589 114.776 235.901 113.064 233.629 110.856C231.389 108.616 229.645 105.912 228.397 102.744C227.181 99.544 226.573 95.96 226.573 91.992C226.573 88.056 227.181 84.52 228.397 81.384C229.645 78.216 231.389 75.528 233.629 73.32C235.901 71.112 238.589 69.416 241.693 68.232C244.829 67.048 248.301 66.456 252.109 66.456ZM252.109 106.728C255.533 106.728 258.045 105.528 259.645 103.128C261.277 100.696 262.093 97.016 262.093 92.088C262.093 87.16 261.277 83.496 259.645 81.096C258.045 78.696 255.533 77.496 252.109 77.496C248.589 77.496 246.013 78.696 244.381 81.096C242.749 83.496 241.933 87.16 241.933 92.088C241.933 97.016 242.749 100.696 244.381 103.128C246.013 105.528 248.589 106.728 252.109 106.728ZM284.946 117V67.224H294.162C296.018 67.224 297.234 68.056 297.81 69.72L298.626 72.408C299.458 71.544 300.322 70.76 301.218 70.056C302.114 69.32 303.074 68.696 304.098 68.184C305.154 67.64 306.274 67.224 307.458 66.936C308.674 66.616 310.002 66.456 311.442 66.456C314.45 66.456 316.93 67.24 318.882 68.808C320.866 70.344 322.37 72.408 323.394 75C324.226 73.464 325.234 72.152 326.418 71.064C327.634 69.976 328.93 69.096 330.306 68.424C331.714 67.752 333.186 67.256 334.722 66.936C336.29 66.616 337.842 66.456 339.378 66.456C342.226 66.456 344.754 66.888 346.962 67.752C349.17 68.584 351.01 69.816 352.482 71.448C353.986 73.048 355.122 75.032 355.89 77.4C356.658 79.736 357.042 82.392 357.042 85.368V117H342.162V85.368C342.162 80.216 339.954 77.64 335.538 77.64C333.522 77.64 331.842 78.312 330.498 79.656C329.186 80.968 328.53 82.872 328.53 85.368V117H313.65V85.368C313.65 82.52 313.09 80.52 311.97 79.368C310.85 78.216 309.202 77.64 307.026 77.64C305.682 77.64 304.402 77.944 303.186 78.552C302.002 79.16 300.882 79.976 299.826 81V117H284.946ZM397.563 86.136C397.563 84.952 397.403 83.8 397.083 82.68C396.795 81.56 396.299 80.568 395.595 79.704C394.923 78.808 394.027 78.088 392.907 77.544C391.787 77 390.427 76.728 388.827 76.728C386.011 76.728 383.803 77.544 382.203 79.176C380.603 80.776 379.547 83.096 379.035 86.136H397.563ZM378.843 94.776C379.323 98.936 380.587 101.96 382.635 103.848C384.683 105.704 387.323 106.632 390.555 106.632C392.283 106.632 393.771 106.424 395.019 106.008C396.267 105.592 397.371 105.128 398.331 104.616C399.323 104.104 400.219 103.64 401.019 103.224C401.851 102.808 402.715 102.6 403.611 102.6C404.795 102.6 405.691 103.032 406.299 103.896L410.619 109.224C409.083 110.984 407.419 112.424 405.627 113.544C403.867 114.632 402.043 115.496 400.155 116.136C398.299 116.744 396.427 117.16 394.539 117.384C392.683 117.64 390.907 117.768 389.211 117.768C385.723 117.768 382.443 117.208 379.371 116.088C376.331 114.936 373.659 113.24 371.355 111C369.083 108.76 367.275 105.976 365.931 102.648C364.619 99.32 363.963 95.448 363.963 91.032C363.963 87.704 364.523 84.552 365.643 81.576C366.795 78.6 368.427 75.992 370.539 73.752C372.683 71.512 375.259 69.736 378.267 68.424C381.307 67.112 384.731 66.456 388.539 66.456C391.835 66.456 394.843 66.968 397.563 67.992C400.315 69.016 402.667 70.504 404.619 72.456C406.603 74.408 408.139 76.808 409.227 79.656C410.347 82.472 410.906 85.672 410.906 89.256C410.906 90.376 410.859 91.288 410.763 91.992C410.667 92.696 410.491 93.256 410.235 93.672C409.979 94.088 409.627 94.376 409.179 94.536C408.763 94.696 408.219 94.776 407.547 94.776H378.843ZM435.369 59.544V77.256H459.273V89.784H435.369V117H419.049V47.064H464.073V59.544H435.369ZM486.912 67.224V117H472.032V67.224H486.912ZM488.448 53.592C488.448 54.776 488.208 55.896 487.728 56.952C487.248 57.976 486.592 58.888 485.76 59.688C484.928 60.456 483.952 61.08 482.832 61.56C481.744 62.008 480.576 62.232 479.328 62.232C478.112 62.232 476.976 62.008 475.92 61.56C474.864 61.08 473.92 60.456 473.088 59.688C472.288 58.888 471.648 57.976 471.168 56.952C470.72 55.896 470.496 54.776 470.496 53.592C470.496 52.376 470.72 51.24 471.168 50.184C471.648 49.128 472.288 48.2 473.088 47.4C473.92 46.6 474.864 45.976 475.92 45.528C476.976 45.08 478.112 44.856 479.328 44.856C480.576 44.856 481.744 45.08 482.832 45.528C483.952 45.976 484.928 46.6 485.76 47.4C486.592 48.2 487.248 49.128 487.728 50.184C488.208 51.24 488.448 52.376 488.448 53.592ZM511.018 72.6C511.978 71.704 512.97 70.872 513.994 70.104C515.018 69.336 516.106 68.696 517.258 68.184C518.442 67.64 519.706 67.224 521.05 66.936C522.426 66.616 523.914 66.456 525.514 66.456C528.234 66.456 530.634 66.936 532.714 67.896C534.826 68.824 536.602 70.136 538.042 71.832C539.482 73.496 540.57 75.496 541.306 77.832C542.042 80.136 542.41 82.648 542.41 85.368V117H527.53V85.368C527.53 82.936 526.97 81.048 525.85 79.704C524.73 78.328 523.082 77.64 520.906 77.64C519.274 77.64 517.738 77.992 516.298 78.696C514.89 79.368 513.514 80.296 512.17 81.48V117H497.29V67.224H506.506C508.362 67.224 509.578 68.056 510.154 69.72L511.018 72.6ZM582.232 80.568C581.112 79.32 579.896 78.456 578.584 77.976C577.272 77.464 575.896 77.208 574.456 77.208C573.08 77.208 571.816 77.48 570.664 78.024C569.512 78.568 568.504 79.448 567.64 80.664C566.808 81.848 566.152 83.4 565.672 85.32C565.192 87.24 564.952 89.56 564.952 92.28C564.952 94.904 565.144 97.112 565.528 98.904C565.912 100.696 566.44 102.152 567.112 103.272C567.816 104.36 568.648 105.144 569.608 105.624C570.568 106.104 571.64 106.344 572.824 106.344C573.912 106.344 574.888 106.248 575.752 106.056C576.648 105.832 577.464 105.528 578.2 105.144C578.936 104.76 579.624 104.28 580.264 103.704C580.936 103.096 581.592 102.408 582.232 101.64V80.568ZM597.112 45.144V117H587.896C586.04 117 584.824 116.168 584.248 114.504L583.096 110.712C582.104 111.768 581.064 112.728 579.976 113.592C578.888 114.456 577.704 115.208 576.424 115.848C575.176 116.456 573.816 116.92 572.344 117.24C570.904 117.592 569.336 117.768 567.64 117.768C565.048 117.768 562.648 117.192 560.44 116.04C558.232 114.888 556.328 113.224 554.728 111.048C553.128 108.872 551.864 106.216 550.936 103.08C550.04 99.912 549.592 96.312 549.592 92.28C549.592 88.568 550.104 85.128 551.128 81.96C552.152 78.76 553.592 76.008 555.448 73.704C557.336 71.368 559.592 69.544 562.216 68.232C564.84 66.92 567.736 66.264 570.904 66.264C573.496 66.264 575.672 66.632 577.432 67.368C579.192 68.104 580.792 69.096 582.232 70.344V45.144H597.112ZM638.125 86.136C638.125 84.952 637.965 83.8 637.645 82.68C637.357 81.56 636.861 80.568 636.157 79.704C635.485 78.808 634.589 78.088 633.469 77.544C632.349 77 630.989 76.728 629.389 76.728C626.573 76.728 624.365 77.544 622.765 79.176C621.165 80.776 620.109 83.096 619.597 86.136H638.125ZM619.405 94.776C619.885 98.936 621.149 101.96 623.197 103.848C625.245 105.704 627.885 106.632 631.117 106.632C632.845 106.632 634.333 106.424 635.581 106.008C636.829 105.592 637.933 105.128 638.893 104.616C639.885 104.104 640.781 103.64 641.581 103.224C642.413 102.808 643.277 102.6 644.173 102.6C645.357 102.6 646.253 103.032 646.861 103.896L651.181 109.224C649.645 110.984 647.981 112.424 646.189 113.544C644.429 114.632 642.605 115.496 640.717 116.136C638.861 116.744 636.989 117.16 635.101 117.384C633.245 117.64 631.469 117.768 629.773 117.768C626.285 117.768 623.005 117.208 619.933 116.088C616.893 114.936 614.221 113.24 611.917 111C609.645 108.76 607.837 105.976 606.493 102.648C605.181 99.32 604.525 95.448 604.525 91.032C604.525 87.704 605.085 84.552 606.205 81.576C607.357 78.6 608.989 75.992 611.101 73.752C613.245 71.512 615.821 69.736 618.829 68.424C621.869 67.112 625.293 66.456 629.101 66.456C632.397 66.456 635.405 66.968 638.125 67.992C640.877 69.016 643.229 70.504 645.181 72.456C647.165 74.408 648.701 76.808 649.789 79.656C650.909 82.472 651.469 85.672 651.469 89.256C651.469 90.376 651.421 91.288 651.325 91.992C651.229 92.696 651.053 93.256 650.797 93.672C650.541 94.088 650.189 94.376 649.741 94.536C649.325 94.696 648.781 94.776 648.109 94.776H619.405ZM672.835 74.904C674.371 72.216 676.131 70.104 678.115 68.568C680.131 67.032 682.435 66.264 685.027 66.264C687.267 66.264 689.091 66.792 690.499 67.848L689.539 78.792C689.379 79.496 689.107 79.976 688.723 80.232C688.371 80.488 687.875 80.616 687.235 80.616C686.979 80.616 686.643 80.6 686.227 80.568C685.811 80.536 685.379 80.504 684.931 80.472C684.483 80.408 684.019 80.36 683.539 80.328C683.091 80.264 682.675 80.232 682.291 80.232C680.115 80.232 678.371 80.808 677.059 81.96C675.779 83.112 674.691 84.712 673.795 86.76V117H658.915V67.224H667.747C668.483 67.224 669.091 67.288 669.571 67.416C670.083 67.544 670.499 67.752 670.819 68.04C671.171 68.296 671.427 68.648 671.587 69.096C671.779 69.544 671.939 70.088 672.067 70.728L672.835 74.904Z" fill="#3E4959"/>
</svg>
