<svg width="469" height="194" viewBox="0 0 469 194" fill="none" xmlns="http://www.w3.org/2000/svg">
<path d="M40.856 86.728H24.984V125H13.208V37.96H42.392C52.2907 37.96 59.8 40.0933 64.92 44.36C70.04 48.6267 72.6 54.472 72.6 61.896C72.6 68.1253 70.936 73.2453 67.608 77.256C64.28 81.1813 59.3733 83.784 52.888 85.064L81.304 125H67.608L40.856 86.728ZM24.984 77.768H42.392C54.68 77.768 60.824 72.6053 60.824 62.28C60.824 57.416 59.2453 53.6187 56.088 50.888C52.9307 48.1573 48.3653 46.792 42.392 46.792H24.984V77.768ZM125.037 118.472C129.304 118.472 133.144 117.533 136.557 115.656C139.97 113.779 143.256 111.219 146.413 107.976L150.765 115.144C147.352 118.984 143.512 121.971 139.245 124.104C135.064 126.237 130.285 127.304 124.909 127.304C117.741 127.304 111.682 125.683 106.733 122.44C101.869 119.112 98.1997 114.717 95.725 109.256C93.3357 103.709 92.141 97.608 92.141 90.952C92.141 84.1253 93.3357 77.9387 95.725 72.392C98.1997 66.8453 101.912 62.4507 106.861 59.208C111.81 55.9653 117.826 54.344 124.909 54.344C129.858 54.344 134.296 55.368 138.221 57.416C142.232 59.3787 145.346 62.28 147.565 66.12C149.784 69.96 150.893 74.4827 150.893 79.688C150.893 81.6507 150.594 84.2107 149.997 87.368H103.789C103.704 88.136 103.661 89.2453 103.661 90.696C103.661 99.144 105.453 105.885 109.037 110.92C112.706 115.955 118.04 118.472 125.037 118.472ZM124.525 62.792C119.49 62.792 115.309 64.2427 111.981 67.144C108.738 70.0453 106.434 74.0133 105.069 79.048H139.629V78.024C139.629 73.0747 138.136 69.32 135.149 66.76C132.248 64.1147 128.706 62.792 124.525 62.792ZM225.858 124.872C222.786 125.981 219.714 126.579 216.642 126.664C213.229 126.664 210.413 125.981 208.194 124.616C206.061 123.251 204.738 120.861 204.226 117.448C196.119 123.677 188.61 126.792 181.698 126.792C176.322 126.792 171.927 125.256 168.514 122.184C165.101 119.027 163.394 115.101 163.394 110.408C163.394 106.056 164.589 102.472 166.978 99.656C169.367 96.7547 172.695 94.3653 176.962 92.488C181.314 90.6107 187.159 88.6053 194.498 86.472L203.97 83.784V78.792C203.97 68.552 200.087 63.432 192.322 63.432C188.055 63.432 184.13 64.328 180.546 66.12C176.962 67.8267 172.909 71.0693 168.386 75.848L163.65 68.68C173.207 59.1227 183.49 54.344 194.498 54.344C201.837 54.344 207.127 56.264 210.37 60.104C213.698 63.944 215.362 70.344 215.362 79.304V112.712C215.362 114.589 215.703 115.955 216.386 116.808C217.069 117.576 218.135 117.96 219.586 117.96C220.866 117.96 222.701 117.533 225.09 116.68L225.858 124.872ZM174.786 109.512C174.786 112.413 175.639 114.547 177.346 115.912C179.053 117.277 181.314 117.96 184.13 117.96C187.031 117.96 190.018 117.235 193.09 115.784C196.247 114.333 199.874 112.115 203.97 109.128V91.336L196.674 93.512C188.567 95.9867 182.893 98.376 179.65 100.68C176.407 102.984 174.786 105.928 174.786 109.512ZM240.282 22.6H251.674V125H240.282V22.6ZM338.627 46.92H309.315V125H297.539V46.92H268.227V37.96H338.627V46.92ZM381.912 127.304C374.744 127.304 368.685 125.683 363.736 122.44C358.787 119.197 355.075 114.845 352.6 109.384C350.211 103.837 349.016 97.6933 349.016 90.952C349.016 84.1253 350.211 77.9387 352.6 72.392C355.075 66.8453 358.787 62.4507 363.736 59.208C368.685 55.9653 374.744 54.344 381.912 54.344C388.995 54.344 395.011 56.008 399.96 59.336C404.909 62.664 408.579 67.1013 410.968 72.648C413.443 78.1093 414.68 84.1253 414.68 90.696C414.68 97.352 413.443 103.453 410.968 109C408.579 114.547 404.909 118.984 399.96 122.312C395.011 125.64 388.995 127.304 381.912 127.304ZM381.784 118.472C388.611 118.472 393.859 115.997 397.528 111.048C401.197 106.013 403.032 99.272 403.032 90.824C403.032 82.4613 401.197 75.7627 397.528 70.728C393.859 65.6933 388.611 63.176 381.784 63.176C374.957 63.176 369.709 65.6933 366.04 70.728C362.456 75.7627 360.664 82.4613 360.664 90.824C360.664 99.272 362.456 106.013 366.04 111.048C369.709 115.997 374.957 118.472 381.784 118.472ZM468.366 65.096C464.27 65.096 460.345 65.8213 456.59 67.272C452.921 68.6373 448.782 71.1973 444.174 74.952V125H432.782V56.648H441.614L443.662 65.864C447.843 61.6827 451.897 58.7387 455.822 57.032C459.833 55.3253 464.014 54.472 468.366 54.472V65.096Z" fill="#49566A"/>
<path d="M18.064 152.2V168.232H36.912V173.288H18.064V193H11.856V147.144H40.112V152.2H18.064ZM52.5905 160.584V193H46.8945V160.584H52.5905ZM53.8065 150.408C53.8065 150.963 53.6892 151.485 53.4545 151.976C53.2412 152.445 52.9425 152.872 52.5585 153.256C52.1958 153.619 51.7585 153.907 51.2465 154.12C50.7558 154.333 50.2332 154.44 49.6785 154.44C49.1238 154.44 48.6012 154.333 48.1105 154.12C47.6412 153.907 47.2252 153.619 46.8625 153.256C46.4998 152.872 46.2118 152.445 45.9985 151.976C45.7852 151.485 45.6785 150.963 45.6785 150.408C45.6785 149.853 45.7852 149.331 45.9985 148.84C46.2118 148.328 46.4998 147.891 46.8625 147.528C47.2252 147.144 47.6412 146.845 48.1105 146.632C48.6012 146.419 49.1238 146.312 49.6785 146.312C50.2332 146.312 50.7558 146.419 51.2465 146.632C51.7585 146.845 52.1958 147.144 52.5585 147.528C52.9425 147.891 53.2412 148.328 53.4545 148.84C53.6892 149.331 53.8065 149.853 53.8065 150.408ZM67.3255 165.288C68.0295 164.499 68.7762 163.784 69.5655 163.144C70.3548 162.504 71.1868 161.96 72.0615 161.512C72.9575 161.043 73.8962 160.691 74.8775 160.456C75.8802 160.2 76.9575 160.072 78.1095 160.072C79.8802 160.072 81.4375 160.371 82.7815 160.968C84.1468 161.544 85.2775 162.376 86.1735 163.464C87.0908 164.531 87.7842 165.821 88.2535 167.336C88.7228 168.851 88.9575 170.525 88.9575 172.36V193H83.2295V172.36C83.2295 169.907 82.6642 168.008 81.5335 166.664C80.4242 165.299 78.7282 164.616 76.4455 164.616C74.7602 164.616 73.1815 165.021 71.7095 165.832C70.2588 166.643 68.9148 167.741 67.6775 169.128V193H61.9495V160.584H65.3735C66.1842 160.584 66.6855 160.979 66.8775 161.768L67.3255 165.288ZM118.757 168.296C117.69 166.867 116.538 165.875 115.301 165.32C114.064 164.744 112.677 164.456 111.141 164.456C108.133 164.456 105.818 165.533 104.197 167.688C102.576 169.843 101.765 172.915 101.765 176.904C101.765 179.016 101.946 180.829 102.309 182.344C102.672 183.837 103.205 185.075 103.909 186.056C104.613 187.016 105.477 187.72 106.501 188.168C107.525 188.616 108.688 188.84 109.989 188.84C111.866 188.84 113.498 188.413 114.885 187.56C116.293 186.707 117.584 185.501 118.757 183.944V168.296ZM124.453 145.864V193H121.061C120.25 193 119.738 192.605 119.525 191.816L119.013 187.88C117.626 189.544 116.048 190.888 114.277 191.912C112.506 192.936 110.458 193.448 108.133 193.448C106.277 193.448 104.592 193.096 103.077 192.392C101.562 191.667 100.272 190.611 99.205 189.224C98.1383 187.837 97.317 186.109 96.741 184.04C96.165 181.971 95.877 179.592 95.877 176.904C95.877 174.515 96.197 172.296 96.837 170.248C97.477 168.179 98.3943 166.387 99.589 164.872C100.784 163.357 102.245 162.173 103.973 161.32C105.722 160.445 107.685 160.008 109.861 160.008C111.845 160.008 113.541 160.349 114.949 161.032C116.378 161.693 117.648 162.621 118.757 163.816V145.864H124.453ZM188.321 147.144V193H182.113V172.136H157.377V193H151.169V147.144H157.377V167.592H182.113V147.144H188.321ZM211.364 160.072C213.732 160.072 215.865 160.467 217.764 161.256C219.662 162.045 221.284 163.165 222.628 164.616C223.972 166.067 224.996 167.827 225.7 169.896C226.425 171.944 226.788 174.237 226.788 176.776C226.788 179.336 226.425 181.64 225.7 183.688C224.996 185.736 223.972 187.485 222.628 188.936C221.284 190.387 219.662 191.507 217.764 192.296C215.865 193.064 213.732 193.448 211.364 193.448C208.974 193.448 206.82 193.064 204.9 192.296C203.001 191.507 201.38 190.387 200.036 188.936C198.692 187.485 197.657 185.736 196.932 183.688C196.228 181.64 195.876 179.336 195.876 176.776C195.876 174.237 196.228 171.944 196.932 169.896C197.657 167.827 198.692 166.067 200.036 164.616C201.38 163.165 203.001 162.045 204.9 161.256C206.82 160.467 208.974 160.072 211.364 160.072ZM211.364 189C214.564 189 216.953 187.933 218.532 185.8C220.11 183.645 220.9 180.648 220.9 176.808C220.9 172.947 220.11 169.939 218.532 167.784C216.953 165.629 214.564 164.552 211.364 164.552C209.742 164.552 208.324 164.829 207.108 165.384C205.913 165.939 204.91 166.739 204.1 167.784C203.31 168.829 202.713 170.12 202.308 171.656C201.924 173.171 201.732 174.888 201.732 176.808C201.732 180.648 202.521 183.645 204.1 185.8C205.7 187.933 208.121 189 211.364 189ZM234.012 193V160.584H237.436C238.247 160.584 238.748 160.979 238.94 161.768L239.356 165.096C240.551 163.624 241.895 162.419 243.388 161.48C244.881 160.541 246.609 160.072 248.572 160.072C250.748 160.072 252.508 160.68 253.852 161.896C255.217 163.112 256.199 164.755 256.796 166.824C257.265 165.651 257.863 164.637 258.588 163.784C259.335 162.931 260.167 162.227 261.084 161.672C262.001 161.117 262.972 160.712 263.996 160.456C265.041 160.2 266.097 160.072 267.164 160.072C268.871 160.072 270.385 160.349 271.708 160.904C273.052 161.437 274.183 162.227 275.1 163.272C276.039 164.317 276.753 165.608 277.244 167.144C277.735 168.659 277.98 170.397 277.98 172.36V193H272.252V172.36C272.252 169.821 271.697 167.901 270.588 166.6C269.479 165.277 267.879 164.616 265.788 164.616C264.849 164.616 263.953 164.787 263.1 165.128C262.268 165.448 261.532 165.928 260.892 166.568C260.252 167.208 259.74 168.019 259.356 169C258.993 169.96 258.812 171.08 258.812 172.36V193H253.084V172.36C253.084 169.757 252.561 167.816 251.516 166.536C250.471 165.256 248.945 164.616 246.94 164.616C245.532 164.616 244.231 165 243.036 165.768C241.841 166.515 240.743 167.539 239.74 168.84V193H234.012ZM308.333 173.256C308.333 171.933 308.141 170.728 307.757 169.64C307.394 168.531 306.85 167.581 306.125 166.792C305.421 165.981 304.557 165.363 303.533 164.936C302.509 164.488 301.346 164.264 300.045 164.264C297.314 164.264 295.149 165.064 293.549 166.664C291.97 168.243 290.989 170.44 290.605 173.256H308.333ZM312.941 188.456C312.237 189.309 311.394 190.056 310.413 190.696C309.432 191.315 308.376 191.827 307.245 192.232C306.136 192.637 304.984 192.936 303.789 193.128C302.594 193.341 301.41 193.448 300.237 193.448C297.997 193.448 295.928 193.075 294.029 192.328C292.152 191.56 290.52 190.451 289.133 189C287.768 187.528 286.701 185.715 285.933 183.56C285.165 181.405 284.781 178.931 284.781 176.136C284.781 173.875 285.122 171.763 285.805 169.8C286.509 167.837 287.512 166.141 288.813 164.712C290.114 163.261 291.704 162.131 293.581 161.32C295.458 160.488 297.57 160.072 299.917 160.072C301.858 160.072 303.65 160.403 305.293 161.064C306.957 161.704 308.386 162.643 309.581 163.88C310.797 165.096 311.746 166.611 312.429 168.424C313.112 170.216 313.453 172.264 313.453 174.568C313.453 175.464 313.357 176.061 313.165 176.36C312.973 176.659 312.61 176.808 312.077 176.808H290.413C290.477 178.856 290.754 180.637 291.245 182.152C291.757 183.667 292.461 184.936 293.357 185.96C294.253 186.963 295.32 187.72 296.557 188.232C297.794 188.723 299.181 188.968 300.717 188.968C302.146 188.968 303.373 188.808 304.397 188.488C305.442 188.147 306.338 187.784 307.085 187.4C307.832 187.016 308.45 186.664 308.941 186.344C309.453 186.003 309.89 185.832 310.253 185.832C310.722 185.832 311.085 186.013 311.341 186.376L312.941 188.456ZM339.33 165.928C339.074 166.397 338.679 166.632 338.146 166.632C337.826 166.632 337.463 166.515 337.058 166.28C336.652 166.045 336.151 165.789 335.554 165.512C334.978 165.213 334.284 164.947 333.474 164.712C332.663 164.456 331.703 164.328 330.594 164.328C329.634 164.328 328.77 164.456 328.002 164.712C327.234 164.947 326.572 165.277 326.018 165.704C325.484 166.131 325.068 166.632 324.77 167.208C324.492 167.763 324.354 168.371 324.354 169.032C324.354 169.864 324.588 170.557 325.058 171.112C325.548 171.667 326.188 172.147 326.978 172.552C327.767 172.957 328.663 173.32 329.666 173.64C330.668 173.939 331.692 174.269 332.738 174.632C333.804 174.973 334.839 175.357 335.842 175.784C336.844 176.211 337.74 176.744 338.53 177.384C339.319 178.024 339.948 178.813 340.418 179.752C340.908 180.669 341.154 181.779 341.154 183.08C341.154 184.573 340.887 185.96 340.354 187.24C339.82 188.499 339.031 189.597 337.986 190.536C336.94 191.453 335.66 192.179 334.146 192.712C332.631 193.245 330.882 193.512 328.898 193.512C326.636 193.512 324.588 193.149 322.754 192.424C320.919 191.677 319.362 190.728 318.082 189.576L319.426 187.4C319.596 187.123 319.799 186.909 320.034 186.76C320.268 186.611 320.567 186.536 320.93 186.536C321.314 186.536 321.719 186.685 322.146 186.984C322.572 187.283 323.084 187.613 323.682 187.976C324.3 188.339 325.047 188.669 325.922 188.968C326.796 189.267 327.884 189.416 329.186 189.416C330.295 189.416 331.266 189.277 332.097 189C332.93 188.701 333.623 188.307 334.178 187.816C334.732 187.325 335.138 186.76 335.394 186.12C335.671 185.48 335.81 184.797 335.81 184.072C335.81 183.176 335.564 182.44 335.074 181.864C334.604 181.267 333.975 180.765 333.186 180.36C332.396 179.933 331.49 179.571 330.466 179.272C329.463 178.952 328.428 178.621 327.362 178.28C326.316 177.939 325.282 177.555 324.258 177.128C323.255 176.68 322.359 176.125 321.57 175.464C320.78 174.803 320.14 173.992 319.65 173.032C319.18 172.051 318.946 170.867 318.946 169.48C318.946 168.243 319.202 167.059 319.714 165.928C320.226 164.776 320.972 163.773 321.954 162.92C322.935 162.045 324.14 161.352 325.57 160.84C326.999 160.328 328.631 160.072 330.466 160.072C332.599 160.072 334.508 160.413 336.194 161.096C337.9 161.757 339.372 162.675 340.61 163.848L339.33 165.928Z" fill="#FF914D"/>
</svg>
